/* XPM */
static char *_ae618c3beff4623c30cb00452e36abcbiyHvmmbyZUAcSMo[] = {
/* columns rows colors chars-per-pixel */
"64 64 231 2 ",
"   c #1D1400",
".  c #2A260C",
"X  c #2C320D",
"o  c #32380F",
"O  c #2E2B15",
"+  c #2E261A",
"@  c #332C15",
"#  c #342E1B",
"$  c #3A2D1C",
"%  c #2E3215",
"&  c #323214",
"*  c #353916",
"=  c #35331B",
"-  c #3A341D",
";  c #35391B",
":  c #3B3B1C",
">  c #383017",
",  c #30270D",
"<  c #342D23",
"1  c #392D23",
"2  c #3C2E2C",
"3  c #363223",
"4  c #3B3423",
"5  c #3D3A23",
"6  c #3C3329",
"7  c #3E392A",
"8  c #363821",
"9  c #2E2B23",
"0  c #433E18",
"q  c #413625",
"w  c #413B25",
"e  c #41342B",
"r  c #433C2A",
"t  c #493E2C",
"y  c #443D31",
"u  c #483D31",
"i  c #3D421C",
"p  c #3C4919",
"a  c #3E4722",
"s  c #464C16",
"d  c #41431D",
"f  c #434B1C",
"g  c #484C1E",
"h  c #4E4D15",
"j  c #4B501C",
"k  c #45511F",
"l  c #53531A",
"z  c #434324",
"x  c #4A4625",
"c  c #464B23",
"v  c #4A4C25",
"b  c #45422A",
"n  c #4A452C",
"m  c #464B29",
"M  c #4B4D2B",
"N  c #524E2F",
"B  c #465023",
"V  c #4A5225",
"C  c #4D532B",
"Z  c #4D5A2B",
"A  c #4A5D25",
"S  c #52542D",
"D  c #525B2C",
"F  c #565827",
"G  c #4C4333",
"H  c #4D4C31",
"J  c #474436",
"K  c #514635",
"L  c #524C34",
"P  c #554D3B",
"I  c #594D3D",
"U  c #54473B",
"Y  c #4E5332",
"T  c #4E5A31",
"R  c #545333",
"E  c #5A5534",
"W  c #545C34",
"Q  c #595C35",
"!  c #56533A",
"~  c #5A533D",
"^  c #565C3A",
"/  c #5B5C3B",
"(  c #615C3E",
")  c #61553F",
"_  c #4F6626",
"`  c #4E6A25",
"'  c #4D642C",
"]  c #4C692A",
"[  c #53642C",
"{  c #546A2D",
"}  c #566629",
"|  c #4E6232",
" . c #556333",
".. c #596435",
"X. c #556933",
"o. c #5D6C34",
"O. c #55643A",
"+. c #5D633B",
"@. c #5D6A3A",
"#. c #566838",
"$. c #5A7136",
"%. c #62732F",
"&. c #626D35",
"*. c #62643E",
"=. c #636B3C",
"-. c #696C3D",
";. c #67673B",
":. c #637335",
">. c #64733C",
",. c #6A753C",
"<. c #6D7A3C",
"1. c #697936",
"2. c #737C3D",
"3. c #73753D",
"4. c #564E41",
"5. c #5C4F42",
"6. c #5C5442",
"7. c #5E5A43",
"8. c #5D5549",
"9. c #615643",
"0. c #635B44",
"q. c #685E47",
"w. c #645D49",
"e. c #695E4A",
"r. c #604F46",
"t. c #5D6240",
"y. c #5F6F43",
"u. c #656443",
"i. c #696445",
"p. c #656A42",
"a. c #6B6C45",
"s. c #6D644C",
"d. c #6D6A4B",
"f. c #65654A",
"g. c #726D46",
"h. c #71674E",
"j. c #726A4E",
"k. c #7B6B4E",
"l. c #657343",
"z. c #6C7343",
"x. c #6D714A",
"c. c #6D7B42",
"v. c #737445",
"b. c #747C43",
"n. c #7A7D46",
"m. c #73734B",
"M. c #79744C",
"N. c #747A4B",
"B. c #7B7B4C",
"V. c #6E6552",
"C. c #6E6B53",
"Z. c #6B6555",
"A. c #726652",
"S. c #736A52",
"D. c #796D55",
"F. c #73665A",
"G. c #746C5A",
"H. c #7A6C5B",
"J. c #757254",
"K. c #7A7256",
"L. c #757A52",
"P. c #7B7C54",
"I. c #76715B",
"U. c #7C745B",
"Y. c #7D7B5B",
"T. c #7B7461",
"R. c #7F7964",
"E. c #7E7768",
"W. c #807D48",
"Q. c #80775C",
"!. c #82795D",
"~. c #857C62",
"^. c #897E64",
"/. c #857D6A",
"(. c #857863",
"). c #867F72",
"_. c #6C8237",
"`. c #738635",
"'. c #73843C",
"]. c #7B8A3D",
"[. c #758243",
"{. c #7A8443",
"}. c #7B834A",
"|. c #7D8C48",
" X c #7D8452",
".X c #82883F",
"XX c #878B4C",
"oX c #93994B",
"OX c #848453",
"+X c #83855B",
"@X c #898A55",
"#X c #959556",
"$X c #97975B",
"%X c #8F9052",
"&X c #99A355",
"*X c #9FA444",
"=X c #A3A858",
"-X c #ACB259",
";X c #868264",
":X c #8B8365",
">X c #8C836A",
",X c #8E886B",
"<X c #888369",
"1X c #91866B",
"2X c #938A6D",
"3X c #928C65",
"4X c #979167",
"5X c #8C8672",
"6X c #958C72",
"7X c #998F72",
"8X c #968D7A",
"9X c #9C9373",
"0X c #9A937A",
"qX c #9A957B",
"wX c #A39A7B",
"eX c #A09778",
"rX c #A6A270",
"tX c #999381",
"yX c #A49D84",
"uX c #AA9E81",
"iX c #A49E88",
"pX c #ACA285",
"aX c #ADA58B",
"sX c #AAA98C",
"dX c #B2A987",
"fX c #B0A58A",
"gX c #B8AF8C",
"hX c #B3A789",
"jX c #B6AC92",
"kX c #BBB194",
"lX c #BCB18F",
/* pixels */
"3 a F.F.T.T.5X5XG.Z.H.U./.).tXiX<XG.).5X8XaX/.F.U.T.E.8XT.9 9 9 y F.F.5X5X5X>XT.G.<X5X5X5XE.T.T.T./.8X5X5XR.T.G.w./.sXiXtX).2 2 ",
"y P E.E.U.U./.;XG.Z.F.G./.>X0XtX/.G.E./.5XiX^.F.G.G.T.).G.< 3 3 J T.I.<X5X(.E.I.I.~./.E.~.R.T.U.I.R././.<XU.I.I.Z./.pXqX).E.7 7 ",
"C.Y.pXqXJ.D.S.S.G.K.e.0.^.>X>X1X(.D.K.D.U.,XU.S.Z.7.8.w.8.u J H 7.;X XT.D.0.9.I.Y.S.G.0.7.I.Y.S.h.w.8.s.k.j.j.!.,X<X,XR.w.w.8.8.",
"C.R.qX6XU.K.J.J.D.D.s.q.(.^.^.:XU.D.J.D.U.>XU.F.s.8.w.Z.w.u J P 7.<XE.I.G.q.q.I.U.S.S.e.w.S.J.S.S.Z.w.s.D.D.j.Q.;X;X:X!.Z.w.4.4.",
"5X>X>X,X:X:XG.S.S.S.S.S.h.h.h.j.j.S.A.A.A.j.j.S.F.D.S.S.s.H P t.J.1X;Xh.h.h.h.D.S.j.S.j.S.X._ s.H.A.j.A.A.D.A.h.h.h.j.D.S.C.6.I ",
"5X5X:X>X:X:XS.S.C.d.A.S.h.h.h.h.h.h.S.A.j.h.j.S.D.A.F.S.Z.K ! f.C.1X;Xs.d.h.h.j.j.A.A.S.S. ._ h.H.A.j.A.A.h.A.h.s.h.J.S.S.Z.4.~ ",
"iX6Xd.h.D.D...X.d.D.@. .h.h.j.j.S.D.e.~ q.j.h.g.;.} ;.B.x.K ~ ,X,X2X~.P 6.A.G...X.d.F.A.D.h.h.v.'.j.G.e.I s.k.u. ./ ) ) ~ 6.5.5.",
"aX0Xi.s.D.j...} d.D.@.[ h.j.h.k.A.F.q.P 0.j.d.d.;._ &.OXm.K 6.6X6X2X(.P I A.F. .D h.H.D.D.h.A.2.`.M.F.e.P s.k.u. .Q I ~ 6.I 5.5.",
"l.x.c.[.oXXXa.i.d.h.d.s.7.7... .n.oXOX(.U.S.u.~ u.a.u.W C 7 w ! / =.+.c V %X#Xx.d.W S +...d.j.u./ -.2.N.!.p.....} o.c.,.[ o.1.,.",
"t.@.'.{.oXoXD.h.S.S.G.F.6.~ W ' ].*X#X7X^.A.w.P w.I.u.c m = = z M X.[ p g &X&XK.D.S c [ { d.J.7.4.,.`.}.6Xl.] { ` :.|._.` { _.'.",
"a H &.&.-.;.@.@.,.b.=.@.R C V B o.1.,.,.z.n.*.W W E S M m : i v V [ ..:.:.-.-.0.0.! R S S ,.2.s.e.p.o.+.f.R Z Z C W *.+... .v v ",
"9 8 o.Q ! R | { 1.'.o.' v v B j Z | [ _ $.'.o.X.S x M M c i p j F [ ..[.b.R H ! I 4.~ M x 1.`.g.F.u.' W P M c x x Y I ! +.R > # ",
"7 7 8 7 I I  .| X.X.Z V ! I >.2.D V S C S / S v / D.9.3 w w 4 : : 5 5 5 7 : w 5 4 : 5 4 5 M F ! 9.~ ~ R V w 4 5 - : 0 q 7 w 4 w ",
"7 7 > 5 I I O.#. .X.V B ~ 6.2.]...v v M N ~ L m ( Q.w.$ 4 4 4 > - > - 3 = : - > = = > 3 3 c v ! 5.I 6.H B w - - - $ q $ - 3 q 6 ",
"r r 7 7 q q z z w z w w w w x v w 5 w 4 x ..H 7 b t w : z Y L t r w 4 > - : q w w w w - > S  .n 7 x C n : w w q e q q q - : r r ",
"7 4 4 - @ @ # # = # > > > @ @ @ - 3 4 4 M $.M w 4 - > o * R C r e 4 4 # # > > - 4 4 e - - W @.z @ z v i # $ 4 4 6 q q $ @ @ 4 4 ",
"G.C.~ 0.!.(.S.h.0.~ s.S.Q.!.k.j.n > - 1 5 x 5 4 - , n ^.!.J.K.(.U.S.d./ ( h.h.h.h.D.h.q - b b : & z M R ( i.A.S.A.D.^.Q.s.h.!.(.",
"qX5Xh.U.jXjX9X9XQ.j.:X7XdXgX9XeXR . # # # 3 @ O ,   N kXpX2X2XfXwX2X1XD.D.1X1X2X2X2X1Xq $ 3 < % X z L ) j.^.2X2X2XwXkXpX1X7XhXaX",
"E.T.d.S.>X>XQ.U.S.h.H.Q.:X:XQ.Q.9.G n n r = H 0./ E h.6X1XK.Q.1X>XQ.!.h.j.!.^.Q.Y.Q.H.I K K G b z n K i.:X;X^.!.Q.!.1X^.(.^.:X^.",
"G.Z.S.A.s.h.h.h.S.S.j.h.h.h.h.h.h.S.q.I G @ s.3X1X7X:XQ.Q.h.h.!.U.h.h.h.k.!.^.h.h.h.A.s.s.9.6.^ W K t h.wX<X(.H.h.h.s.j.^.Q.s.d.",
"I.J.j.h.S.S.j.D.e.e.h.j.S.h.h.D.q.0./ u.R # 0.Q.!.^.^.K.J.d.h.U.D.S.j.j.S.U.K.S.h.j.A.s.s.~ I ! T u.s.U.9X(.U.H.h.D.S.j.D.D.h.D.",
"L.L.d.h.j.A.A.j.) ! s.D.S.D.S.D.0.P i. Xu.1 9.D.!.8X^.d.a.p.p.h.A.S.h.D.j.j.D.j.A.j.j.F.G.6.I ^ T <XgX0X>XU.A.A.j.h.d.s.+.*.S.h.",
"I.x.*.;.h.j.j.S.D.H.S.h.q.0.*.=.R L N C x 1 ! i.*.i.i.j.h.d.d.j.h.u.s.h.h.q.0.h.S.p.;.0.0.6.I R V p.L.d.s.m.M.m.j.D.j.d.^ / d.d.",
"C.C.D ..D.F.D.h.>X6XQ.h.~ ~ W ' C M 5 # = # M o.S 0 R D.S.S.D.F.d.Q *.g.s.I L h.A.+.o.R E I r.M B Z T W L -.{.m.d.h.I.d.G ! a.a.",
"C.C.t.p.u.i.h.d.U.(.d.u.^ Q 3.[.Q M z > 5 m C Z W S Q q.q.j.g.i.u.;.i.h.h.S.S.h.h.*.Q ~ I L E x i Z  ...W z.m.M.OXk.q.q.d.d.t.u.",
"G.I.J.C. .X.d.J.h.A.+.[ ..X.oX-X&.v z & m l.Z g Z @.Q S Q m.d. .+.d.a.D.D.2X1XG.j.~ H 6.~ N v - @ B { X...i.A.OX=XB.G w.0X/.Y Y ",
"Z.d.u.u.Q ^ *.q.i.d.=.&...W 2..XQ z a = a T c p S u.Q S Q M.m./ *.L.m.( i.!.+Xa.a.*.+.R ! V V g i W l.@.X.*.f.n.oXb.S +.P.N./ +.",
"t./ L ! I ~ x x { { 1.'./ ~ g s : < = 3 = = > @ L Q.*.f D OXB./ h.=X%Xh l 2.'.o.[ 2.2.C v v v ..{ L.6XN.' X. .:.].:.X.{ _ { N.N.",
"t.t./ / Q ! C v X.X.&.&.E P v g d z 5 = ; = - > M i.^ B Z N.x.~ ;.XXn.j l ,.b.D Z >.1.m z v x Z Z p.I.p.' ..^ &.1.o.Z X.[ ..,.-.",
"4.t.}.b.{ { { { ~ I u 2 e e e 6 Z $.v > : - 6 w = . a $.X.Z Z V c d f V F  .X.: # Z ] 8 = 2 e 4 4 > O : x L r.t @ i B B V v g c ",
"4.7.[.z.} [ [ { E ~ t 6 t r 7 6 C X.m > 4 - 4 w ; O i X.| Y Z v c f c v B T T 5 = V ' 3 3 7 w 6 7 3 # 5 x L 5.n > 0 c c M v c c ",
"3 7 Y Y V V f d > > # & A ` 7 6 6 4 4 6 6 6 - > # O O = = # # 6 q q 4 = = = & = 3 & > q 6 A ` b 2 6 6 6 6 2 e 3 > - = > # # : 4 ",
"4 7 H M x x Q ;.L L L S ,.,.6.4.I L 6.9.I I L L L ~ R L K G G G r 6 7 - 4 z r n n K L K K =.>.~ 4.6.9.6.I I P I ~ E ! H P G 4 4 ",
"4 4 1 4 6 w eXdX7X2X2X1XuXfX7X6X2X2X0XdXwX2X7X2XwXkXuX2X1X(.U./ L * = 4 7 s.d.S.j.>X2XD.S.1X7X2X2XwXhXwX2X2X2XeXdXwX,X2X0X<X- 4 ",
"J J K L G K 7XeX:X^.:X:X9X9X>X^.:X^.2XwX7X^.^.^.6XwX7X^.;XI.F.Q R z n H P h.A.F.S.!.^.S.h.~.:X:X!.7XwX7X^.:X;X,X9X6X~.;X<XU.- 4 ",
"G.T.pXpX1X1X>X>XD.h.!.>Xj.h.d.S.h.s.K.1X!.h.j.S.h.A.h.j.h.A.s.R Q h.U.aXpX1X1X:X1XD.h.S.A.S.h.j.j.!.1XQ.h.S.h.S.A.A.d.Z.J.s.4 4 ",
"C.T.uXwX;X:X:X:XD.j.!.:Xj.d.j.S.h.s.U.:X!.h.j.j.S.j.S.j.A.V.e.H Q J.Y.pXwX>X:X:X:XD.j.j.S.S.S.j.h.Q.,XQ.h.j.D.S.F.A.d.h.S.f.3 4 ",
"G.J.1X>XD.D.g.d.j.j.S.S.n.[.j.S.h.S.j.D.S.A.S.h.h.h.j.G.s.6.6.4 7.pX0X3X:XD.F.S.S.S.h.~ R d.S.C.h.S.F.j.g.j.h.j.j.A.S.s.7.~ : 4 ",
"S.I.1X:Xj.j.d.a.j.h.j.A.n.[.D.S.S.S.j.S.A.A.S.h.j.g.h.D.d.6.~ 4 9.aXwX;X;XS.h.j.j.j.h.! R d.S.S.j.h.S.h.a.h.h.j.j.j.S.h.6.I - 4 ",
"wX0X:X;XD.S.t.p.d.S.h.m.x.x.d.C.h.h.A.S.s.~ u.m.*.v Q J.C.u.0.r M R /  X XS.h.v.z.h.Z.+.^ a.x.d.G.d.a.m.n.m.x.S.G.h.a.m.~.U.! R ",
"sXiX:X^.A.A.+.t.C.G.d.m.d.x.S.x.h.h.A.G.q.L u.m.( s E J.g.i.u.z z z C }.P.S.j.a.z.h.S.+.Q a.x.C.G.j.z.m.n.m.x.C.F.j.a.m.1X;X/ 6.",
"N.x.z.x.B.B.=.;.*.( &.:.t.t.>.:.-.i.t.+./ i.+.+.......@.+./ ~ z M u.p.g.g.t.t.>.:.+./ p.*.>.>.+.7.+.^ p.N.=.X.+./ @.,.>.u.t.T Y ",
"O./ @.=.W.n.;.;...Q o.%.^ ~ o.%.&.@.+.Y Q i./ W ..} X. .^ L R c Y a.u.i.u.^ ^ o.:. .^ t.p.o.o...^ W W +.M.o.]  .W ..1.o.T T C C ",
"a a M V j j j j R ^ } } 6.7.,.'.[ c i % ; ; x L z X * ; ; 4 w ^ C * : = = ; ; ; * H R M C j j B c W =.^ W V c ,.&Xv.c c * : d p ",
"5 5 B c s s s s R ^ [ _ 6.6.<.'.[ p i % = = z Y w X * = & - : O.Y * * O & % = & & M R v v j s c a W =.^ R C p <.=X2.z d @ * i i ",
"7 7 5 - : 0 : : 5 7 : i 4 6 i p : - 8 8 5 7 7 w w w w 7 7 b r z a 8 4 q w 7 w 4 4 5 7 : : : : c V z 5 w r 7 5 a x d w w 6 w 5 : ",
"8 3 # # @ o & @ & O % % # < & * > # 3 7 6 4 - - 3 6 6 4 4 r w i ; 3 3 q q 6 6 3 = = # ; > > > c Z 0 > 4 w = & @ , @ - 3 6 6 # > ",
"G.C./ 0.j.D.m.j.j.S.j.J.r 4 5 3 m T H r 6.1Xh.9.s.D.I.:X!.G.D.q.q.0.q.0.w.(./.J.S.S.C.7 7 w w w w z m b 4 s.:XJ.h.K.>XQ.9.f.(.^.",
"8X<XC.G.6X6X1X,X2X1X2X6Xt # 4 6 T $.Y 1 Z.lX:Xh.!.1X9XdXuX1X1XD.k.F.D.D.D.pXhX2X,X7X1Xw 3 4 4 4 4 n S z + (.gX9X:X0XkXwXh.U.uXpX",
"T.I.d.h.U.Q.2X7X!.K.K.U.s.s.u 4 Y { f.T.U.^.!.Q.Q.D.Q.!.!.K.U.j.j.A.h.h.D.6X6XU.K.U.K.h.s.s.d.K 6 x c / U.:X4X1X:X^.^.Q.s.D.2X6X",
"C.S.S.j.h.S.wXpXK.h.h.h.:X2XG 1 Z ` +XkX6X0.!.7X!.h.j.h.h.h.h.j.D.h.A.j.S.<X>XS.s.h.j.1X2X2X7XI 1 b f M.gX7X+X,X1X!.s.h.h.S.^.>X",
"G.F.j.S.j.j.:X:XJ.j.S.S.!.!.4.y M B d.2X;XQ.Q.!.D.j.j.j.S.S.S.S.S.h.j.S.S.Q.Y.D.j.j.j.U.Q.Q.Q.~ u n a i.eX1X:X!.!.K.j.A.h.S.Q.!.",
"C.G.h.j.D.j.s.s.A.S.S.h.h.h.0.8.G 1 ~ S.K.9XU.s.A.S.h.j.h.A.A.j.S.j.S.S.S.h.S.S.S.S.A.j.h.h.S.9.I G 1 6.:X^.1XU.s.h.D.F.S.D.h.h.",
"@XOXh.g.q.0.d.S.v.2.j.S.D.S.6.~ t < L =.a.Q.j.d.v.M.M.j.j.M.g.v.m.h.j.h.j.j.h.S.j.S.j.j.j.q.0.~ ~ K a s.wXOX}.M.j.s.~ u.A.j.g.g.",
"&X#X-.i.K P d.S._.`.J.G.C.C.6.~ t # M X.;.H.g.g.v.2.M.h.g.3.3.v.m.h.h.h.d.S.j.h.D.h.j.h.j.I P I 6.R p m.dXOX_.v.D.i.K ~ h.k.g.3.",
"[.}.XXn.m.D.p.+.z.m.i.0.G.S.7.~ b - V  ...p.u.q.g.M.k.h.h.g.h.g.j.m.m.g.d.s.i.h.h.h.h.M.v.g.D.9.I H 5 u.eX@XOXM.h.i.R ( D.h.( ( ",
"| >.&X&X$X3X{ _ d.D.0.P G.I.q.~ n = V X.X.] R U q.k.j.S.A.V.V.A.j.n.N.a.a.7.6.s.d.A.F.'.'.3X4Xu.P J < 7.1X:X2XK.a.u.o.p.G.C.U U ",
"y.l.{.}.P.P.=.+.d.G.i.;.p.d.~ ! x 0 C T  .*.g.k.j.j.h.0.w.s.d.d.d.v.g.;.i.h.h.h.S.d.=.v.b.j.J.7.I u < E @X!.!.j.q.*.^ / i.s.e.f.",
"F.C.W  .d.d.S.S.S.A.n.{.X.| C v M C C c E D.@X=X@XD.d.Y ^ a.p.=.p.a.a...*.+X3XJ.D.X.] d.d.! H ~ 0.b O N '.g.S.0.L ! L R  .+.:X>X",
"I.d.W ..p.p.m.x.i.s.a.,... .V x x g v c E i.M.%Xn.M.i.W ^ *.*.l.p.-.p.^ *.L.L.C.A. .{ x.m.^ R P L r @ S <.a.d.u.*.( +.+.[ +.P.P.",
" XL.Y R } } 2.'.W Y R R ~ ~ : % & % d N M v D X.>.|.c.O.O.Z W N.z.F W ~ ~  ...~ 6.+...}.}.@.o.7 # ; > V @.O. .z.}.}. Xb.[ [ &.&.",
"Y.J.R R &.:.<.[.W R ! ! R ~ a * : * z M M M R W =.b.z.W W C R z.p.S E ~ R .. .E ~ W X.v.B.@.+.z = 7 a m O.W T @.z.z.L.z.o.o.;.;.",
"6.5.x R $X#Xl.y...X.C m M M ^ O.O.O.H e e : 3 = a C M M b w 7 6.~ H M M M V M 5 4 m B ~ ~ 6.6.J 6 H o.M = = > 4 - b ~ p.4X@XH H ",
"8.6.x R #X$Xl.p. . .Z C M M O.O.O.O.H e q 4 5 = 7 H m H G w r 6.~ n H M M c M w 4 m B ~ ~ ~ 6.u 3 H o.M > - : - - x Q =.$X@XL Y "
};
