/* XPM */
static char *_8cfd038964341b2a200b80ada5a12d0D0NwoYlwRtbMqg2o[] = {
/* columns rows colors chars-per-pixel */
"64 64 240 2 ",
"   c #3E1D32",
".  c #3B252D",
"X  c #3D2B2E",
"o  c #372A27",
"O  c #3C322A",
"+  c #3D3927",
"@  c #3D2633",
"#  c #3E2C32",
"$  c #342435",
"%  c #3E3133",
"&  c #51361A",
"*  c #422B2E",
"=  c #44282E",
"-  c #522C2A",
";  c #552B27",
":  c #44332B",
">  c #4D342A",
",  c #473C2A",
"<  c #533325",
"1  c #54332C",
"2  c #5D342E",
"3  c #55392D",
"4  c #5C3B2D",
"5  c #573C26",
"6  c #442E33",
"7  c #4A2E33",
"8  c #422D38",
"9  c #432734",
"0  c #532E32",
"q  c #443134",
"w  c #4C3234",
"e  c #4A3B33",
"r  c #453139",
"t  c #4C3339",
"y  c #473B32",
"u  c #533534",
"i  c #5B3634",
"p  c #543936",
"a  c #5C3A35",
"s  c #54363A",
"d  c #5D3639",
"f  c #563B3A",
"g  c #5C3B3A",
"h  c #652C2A",
"j  c #63352D",
"k  c #63392D",
"l  c #6C392D",
"z  c #743A2C",
"x  c #7A3B2E",
"c  c #78382A",
"v  c #622E33",
"b  c #643533",
"n  c #623A34",
"m  c #6C3B34",
"M  c #623B3A",
"N  c #6A3D3A",
"B  c #673634",
"V  c #743C32",
"C  c #7C3D33",
"Z  c #743D3A",
"A  c #7D3E38",
"S  c #773731",
"D  c #3E4F1A",
"F  c #364923",
"G  c #46481C",
"H  c #504F16",
"J  c #50651B",
"K  c #4A4B26",
"L  c #494729",
"P  c #5A4C22",
"I  c #54452B",
"U  c #5D422D",
"Y  c #524B2C",
"T  c #594C2C",
"R  c #544925",
"E  c #4B562A",
"W  c #51532C",
"Q  c #555C2C",
"!  c #585626",
"~  c #4A4335",
"^  c #4D4B33",
"/  c #464235",
"(  c #544234",
")  c #5D4435",
"_  c #5C4B34",
"`  c #5E413D",
"'  c #574938",
"]  c #4E5433",
"[  c #4E5A34",
"{  c #5A5333",
"}  c #545B35",
"|  c #5A5B33",
" . c #575838",
".. c #654A29",
"X. c #79442F",
"o. c #65562C",
"O. c #624335",
"+. c #6B4232",
"@. c #614B34",
"#. c #63423B",
"$. c #6C4C3C",
"%. c #6B4637",
"&. c #744333",
"*. c #7B4234",
"=. c #7D4B32",
"-. c #7C4239",
";. c #734A3D",
":. c #7C4B3C",
">. c #75433A",
",. c #675734",
"<. c #795739",
"1. c #4C672D",
"2. c #52652D",
"3. c #59672C",
"4. c #4E6533",
"5. c #546434",
"6. c #5B6334",
"7. c #5B6C35",
"8. c #5A6C3B",
"9. c #566937",
"0. c #557233",
"q. c #557327",
"w. c #676837",
"e. c #77693A",
"r. c #687435",
"t. c #6E6F36",
"y. c #5D3D41",
"u. c #5E3140",
"i. c #613C43",
"p. c #5D4541",
"a. c #664843",
"s. c #734D43",
"d. c #764943",
"f. c #6C584A",
"g. c #785745",
"h. c #5B6D41",
"j. c #716A46",
"k. c #79784A",
"l. c #853B2D",
"z. c #8B3D2D",
"x. c #863528",
"c. c #923D2E",
"v. c #90372B",
"b. c #833D32",
"n. c #8D3F32",
"m. c #823F3C",
"M. c #913E32",
"N. c #913D38",
"B. c #8D2E2A",
"V. c #8B412E",
"C. c #85452B",
"Z. c #93402E",
"A. c #844234",
"S. c #8C4133",
"D. c #834933",
"F. c #8D4B34",
"G. c #84443A",
"H. c #8B453A",
"J. c #8C4B3A",
"K. c #844A3B",
"L. c #914234",
"P. c #914A35",
"I. c #934C3B",
"U. c #974437",
"Y. c #8C533A",
"T. c #875539",
"R. c #95543D",
"E. c #945A3B",
"W. c #9A583D",
"Q. c #94633E",
"!. c #886D3E",
"~. c #824D42",
"^. c #8D4D43",
"/. c #835542",
"(. c #845B44",
"). c #8B5C42",
"_. c #835B4B",
"`. c #8C5C4B",
"'. c #885649",
"]. c #945542",
"[. c #945B43",
"{. c #9B5C42",
"}. c #995845",
"|. c #825D52",
" X c #A15E4B",
".X c #8A6447",
"XX c #9B6445",
"oX c #94634C",
"OX c #9C654B",
"+X c #9D6B4B",
"@X c #976845",
"#X c #877845",
"$X c #997647",
"%X c #8C655B",
"&X c #8A6454",
"*X c #9A6B52",
"=X c #986855",
"-X c #9A7358",
";X c #877F52",
":X c #A46D4B",
">X c #A66A47",
",X c #A4734D",
"<X c #AB724B",
"1X c #A27244",
"2X c #A36D53",
"3X c #AA6C56",
"4X c #A87556",
"5X c #B3704B",
"6X c #997463",
"7X c #A77964",
"8X c #78823C",
"9X c #7F8452",
"0X c #6F8144",
"qX c #83893E",
"wX c #8B8944",
"eX c #928B46",
"rX c #8B9144",
"tX c #899844",
"yX c #939946",
"uX c #969849",
"iX c #968454",
"pX c #9D965D",
"aX c #A78F53",
"sX c #98A64A",
"dX c #9FAF5D",
"fX c #A6AA4B",
"gX c #A9AF54",
"hX c #9F856E",
"jX c #B78966",
"kX c #A49866",
"lX c #A68A74",
"zX c #BB9576",
"xX c #AF8E72",
"cX c #B1AC6D",
"vX c #C39877",
"bX c #C7A989",
"nX c #D3B18D",
"mX c #D6B993",
"MX c #D6BFA2",
"NX c #DBC39F",
/* pixels */
"&Xg.K.~.oXoXF.F.S.z.F.Y.F.P.a r t q _.vX3XL.P.F.F.C.T.iX#Xt.e.Q.E.F.F.P.F.a 2 w % f.g.H.P.F.F.F.F.Q.5X!., T ^ o.o.!.aX,Xz.S.T.d.",
"&X|.D.H.].'.F.S.D.D.D.F.F.P.a t t 9 g.vX:XL.F.F.F.C.T.@X.Xo.w.T.T.F.F.P.F.a d w u.g.6X].R.P.F.P.F.E.XXT.U _ _ @...<.$X!.X.X.`..X",
"-XOXz.z.l.l.c.M.,.3.D.c.V.L.+.f t 9 $.+XE.c.n.n.n.M.V.*.X.G G , 5 A.b.M.n.b b 7 9 xXmX4X<XI.n.n.V.z.x.A.K.G.G.m ) 5 & & H P pXpX",
"-XoXz.z.b.b.v.z.<.w.=.z.S.S.N f u @ ;.,X].c.n.S.n.n.S.A.*.H R R ..b.A.n.n.M B 7 @ xXnX3X>XU.n.H.S.z.l.A.G.G.G.&.4 4 & R H P iXiX",
"2XOXl.V.c.z.j 1 wXsX<.h z.Z.B M u $ ;.<XW.n.S.S.c h c F.P.iX$X! ..H.A.n.n.B b 7 * lXbXF.S.z.l.n.n.n.n.S.n.n.n.H.S.H.^.:.n O.+.4 ",
"=X[.C.V.M.z.2 0 wXsX<.v b.c.N g w @ >.<XW.z.A.S.c h z S.Y.iX$XP ..G.A.n.b.b j 7 X lXbXJ.V.z.l.S.S.n.n.n.n.n.n.S.S.H.H.G.N n n O.",
"t u a n B B M u.[ 1.) b B B w q q 6 w e u B n n b d n n +.T T } { U ) b B 7 7 7 # .X,XL.z.n.n.n.n.S.n.n.V.n.z.n.S.b.S.S.S.b.*.Z ",
"6 q g g n b d u.E 1.) M n b w 6 6 6 6 # 1 B i n n M n i 4 I I 5.} 4 U b b 7 * 6 X ).>XS.z.n.n.n.n.n.n.V.V.V.L.V.H.n.n.n.M.n.A A.",
"6 : w w w 1 wXeX! G 3 7 7 0 q q q 6 q 7 w w 7 w 7 w 7 w w w r e e Y L : : 6 7 6 * ).:XS.n.n.n.n.n.n.z.n.H.V n A.M.n.n.n.n.S.A A ",
"6 q * 7 . = yXfXQ D : 9 = = X # X $ . @ @ X * 6 6 6 6 7 6 8 r 6 y ] ^ * O q q : * ).>XV.z.S.n.n.n.M.n.H.S.m u V L.S.n.n.n.n.A G.",
"6 q 6 t /.(.t.r.T ( V S :.:././.-XhX6XlX-X/.M * 7 6 6 6 7 7 q 6 q y : q # q 8 q % ).:XE.W.P.V.z.V.n.n.S.z.Y.`.J.n.n.z.S.G.b.B B ",
"6 6 q t 2X+X3.3.O.B b.M.E.Q.>X>XzXmXnXnXzX<X$.9 w 6 7 6 6 6 6 6 6 6 6 6 6 r q 6 # ).,X+X+XP.c.V.V.n.S.S.z.{.<XR.n.n.V.n.G.-.i a ",
"* f *X[.I.I.rXqX$.p b.n.V.L.S.b.H.I.I.I.J.F.m u u * 6 6 7 6 q 7 7 : u -.-.j j } 4.5.w.rXyXF.V.V.M.S.z.M.n.S.S.n.n.z.M.n.M.N.C C ",
"X g 3X2XL.U.yXfX$.a C L.V.z.l.x b.n.n.n.n.S.N g u 6 q 6 8 7 6 6 6 # w H.G.n j 5.9.5.9.tXsXF.z.V.n.S.V.V.n.n.H.z.z.n.n.M.v.M.b.b.",
"# f 2XOXL.H.w.r._ a *.c.z.M.n.l.A.z.z.S.S.S.m g u 6 w 7 7 8 7 i.Z C b.S.S.m k y % ) ) w.r.qXqXF.z.M.N.M.V.z.n.z.n.n.n.n.M.N.m.b.",
"# a ,XOXN.S.2.2.) a b.Z.M.M.S.A.z.x z.n.S.S.N d u 6 7 t 7 8 7 d.-.M.n.z.z.n n 9 $ u d 2.1.qXsXE.B.M.M.M.z.z.z.z.n.b.S.n.S.b.A A ",
"# f 3X=Xm.A.6.9.) i Z S.b.N.V m b.n.b.b.n.N.m d s q 7 - - S S m.H.L.M.N.N.}.'.t 9 ;.(.@.) t.r.!.$XE.n.C m m Z m l C N.n.n.N.-.Z ",
"X g 7X2Xb.x w.8.) i *.S.n.N.Z M n.N.n.l.N.N.Z f t r 7 ; ; c.M.N.N.c.c.v.M.3X3Xs 9 oX4XM j | 5.rXfX!.n.&.i a i b b V U.L.L.L.-.-.",
"q e s.s.%.,. .} ` g N Z Z Z n 4 Z A Z Z V Z d t r 7 0 2 B ^.~.Z -.}.].}.}.d.d.7 6 #.s.g a _ _ w.t.<.z k M M M M a N Z Z Z Z N N ",
"* 6 9 6 9.9.^ ^ ` i.y.y.i.i.4 < g i.d i.g f w # 7 7 u #.d.%X|.g a.7X7X7X3X= = 6 r # # f f g M L L G & 3 i.` y.M M y.y.y.y.y.s s ",
": w 0 1 | ! I I a ` f f p a I P ) M g a d a > 7 7 7 u i M d.s.i #._.g.`.g.u - w q w t a p p u e / { w.@.s g a a d n M g M g u i ",
"1 > - 1 P R < ; > p q 9 * * Q q.I - > 3 > u > < < < < ; < > < 1 1 > > > < 1 2 1 1 1 1 1 1 7 6 q X j.dXj.= u 2 ; ; 1 3 1 p 3 1 1 ",
">.>.S z =.D.*.X.;.:.a t w 6 Q q.t.#X<.&.;.&.V z V z z x S *.*.X.&.&.&.&.V X.X.V V C X.z *.1 1 q X  .0X,.u V x x c V &.&.:.=.x x ",
"^.H.z.M.I.U.P.L.].[.%.u 7 6 1.q.eXgX$XF.Y.Y.P.P.L.H.H.L.L.L.L.F.F.Y.J.S.F.S.F.P.P.P.P.P.P.n 1 : X ^ 8.] d A.P.L.L.S.D.J.}.}.P.P.",
"H.H.S.b.H.L.S.H.S.J.+.s q 6 Y ! t.8X<.X.*.F.S.S.H.n.n.l.b.H.S.S.S.A.S.S.S.S.S.S.n.H.n.n.H.B 2 q # ] 8.{ d *.L.V.n.S.A.A.J.J.L.V.",
"G.H.n.H.n.n.n.M.n.z.N f 7 6 > , G J P h z Z.S.n.z.M.n.c x.N.M.M.S.S.S.N.n.N.n.n.n.n.M.n.n.B i w @ ] 8._ i l.c.L.n.S.S.S.S.S.c.M.",
"H.G.n.n.b.b.n.n.n.z.N p w 9 O.,.W J T k +.l.z.N.H.n.n.x.l.b.b.b.b.C C b.b.l.b.n.n.n.n.n.n.n i ( / ] 1._ i l.Z.z.S.n.A.b.b.b.n.M.",
"G.H.M.n.b b b.n.n.z.N a 7 6 E.5Xo.D [ 8.{ v C N.n.M.S.N.n.m m B M b N H.G.v b b.n.S.N.n.M.k 3 | h.E D K a b.c.S.n.S.S.b.h l S.M.",
":.G.b.b.b b C b.b.b.g t r 6 :.[.{ K W 4.{ n &.b.b.b.b.b.b.B m b M n B -.A B j S C b.b.A.b.a u  .8.E D L a V z.A.b.b.A C b m b.b.",
"g g M M g b g a M M % u.6 q 7 9 1 k K K E 7._ a a a a a g M d i i n n b d 4 a M #.n n a n t 7 [ 0./ 7 u g a a a g g M M M n a b ",
"a a d n d g g g M M t r q 6 7 8 1 a I E Q 6._ a g a g g M d i u i a i i i a 4 a M a a g g t 8 [ 0.^ 6 t a a a g b g d g g g n a ",
"6 6 6 6 # . 9 8 [ 0./ # % % # % 6 % 9 9 6 9 ~ 4.~ # 6 @ @ 7 6 7 6 X # X # # # # @ 8 8 8 # 9   ] 0.~ 9 # . # q 6 @ 6 r 8 8 8 6 9 ",
"6 q : q g g i.N 5.0._ g u u g g g a.#.N #.#.f.k.f.g ` p.y.6 r 7 w ` g p a f.f.a.g p.#.#.` ' ' } 2._ M a.f.#.g #.` g d u u a #.` ",
"6 6 X t 4X2X5X5Xw.1..X3XU.n.>X<X:X:X:X:X,X>XzXNXzX>X4X-X&X# q 9 ` 7X-XQ.@XnXmX4X,X,X,X>X1XaXfX6.F e.>XjXNXjX:X:X4X{.z.V.z.V.1X<X",
"6 q s ` OXOXXXXXw.0..X XH.S.W.XXOX:XXXXXXX>XjXzX4XQ.oX=Xg.8 t t a.*XoXY.[.zXvX2XXXXXQ.$X1XwXyXw.K <.{.4XbX2X{.XX>XR.n.n.l.S.XXXX",
"X f -X=XS.S.9.4.rXsXE.v.S.n.n.n.W.:XR.x.R.3XI.v.V.Z.S.S.-.s p.%X`.z.S.n.z.l.x.n.c.z.V.tXsX0.1.) s C Z.V.l.n.L.z.l.z.M.M.L.S.-.-.",
"# f -X+XL.F.7.9.wXuXE.n.S.n.S.z.E.:XR.x.I.:XI.z.L.Z.S.A.-.t d %X`.V.V.n.n.l.z.n.S.C.C.rXtX7.2.O.g C z.z.z.S.L.n.V.n.c.M.M.n.-.-.",
"X f 1XQ.S.L.eXyX$.M b.M.n.n.M.n.L.L.S.n.n.S.L.n.V.n.S.G.-.u f %X`.C.S.S.n.V.V.x.x.o.2.6.7.@.g *.S.S.S.n.M.S.n.n.n.n.n.S.S.n.A A.",
"# ) 1X@XH.S.eXuXs.M m.n.n.n.n.M.H.L.n.n.n.z.n.n.S.S.S.G.>.u g %X`.V.V.S.n.l.C.l.x.| 1.3.6.O.a *.F.S.S.S.n.S.n.n.n.n.M.n.n.n.A m.",
"o _ kXpX| w.| Q C b.S.n.S.n.n.S.z.n.n.n.n.n.n.n.S.A.*.n n p g %X`.C.D.S.A.eXeXw.6.] K a k A.S.S.S.z.S.n.n.n.n.n.S.n.V.z.S.H.:.-.",
"o ' cXkX0.9.E L A.M.n.n.n.n.n.n.n.n.L.n.n.n.n.n.A.S.V 4 4 u d %X`.c C.C.J.uXuX7.9.E L j h b.L.n.n.n.M.n.n.n.n.n.M.n.V.V.S.H.K.~.",
"h. .w.,._ U U a b.n.S.n.n.n.n.n.n.M.n.n.n.n.M.S.n.S.A.*.&.s f s.(.aX$Xo.,.r.j.T U 5 4 S C b.S.H.M.S.n.n.S.n.n.S.n.n.z.S.A.X.....",
"h. .R I k k B j n.n.n.n.S.M.n.n.n.S.n.n.n.n.n.n.n.S.S.A.-.s a %.j.kXiX6.6.} | k h j l x.b.n.n.n.n.n.S.n.n.n.n.n.S.n.M.S.X.X.P P ",
"q ~ f.<.S.A.n.n.S.n.n.n.n.n.S.n.n.n.n.n.n.n.S.n.S.S.S.H.*.p ( ] T Y ! +.+.&.+.b.z.}.{.S.n.l.l.n.n.n.n.n.n.M.M.n.n.n.n.S.D.<.k.9X",
"y ^ f.g.S.S.L.z.M.n.n.n.n.n.n.n.n.n.n.n.n.M.n.n.S.n.S.A.*.~ ( E W K R +.O.V V S.c.{.>XL.n.l.l.n.n.S.n.n.n.n.N.n.n.n.n.S.D.T.9X9X",
"% ( -X&XS.H.M.S.S.n.n.S.S.n.n.n.n.S.n.M.n.S.S.n.b.n.C V m ( I L R %.>.m.A.z.n.n.n.L.L.z.n.n.n.l.x.n.n.n.L.x z l.M.S.b.Y.iX#X{ Q ",
"# p.7X=Xn.n.S.n.n.n.S.M.n.n.S.L.M.S.n.S.n.n.n.M.n.b.x m +.R R G I >.-.H.H.M.M.n.H.n.z.n.z.n.S.l.x.l.H.M.U.C l l.M.S.b.Y.kX;XY Y ",
"# f -X=X{.{.L.z.n.n.n.n.n.S.S V b.M.n.n.n.S.n.n.S.J.*.n n p f f.g.C.D.n.n.n.n.n.z.C V n.S.n.n.n.n.x m V z B i C L.A.C.D.j.j.I I ",
"X f *X*X:X:XL.z.S.M.n.n.S.L.j j C M.n.L.n.n.n.z.S.J.-.a a s g 6X&XF.S.n.M.L.M.L.V.V B n.S.n.M.S.N.S b k k g g Z U.V.D.=.6.,.p a ",
"X p.zXlXR.Y.S.V.n.S.n.S.n.n.~.(.H.n.n.z.n.S.n.n.S.J.-.a a p f p.%.z m z V l V z V j n V V V V z V B n n b b d B &.z l +.Q { a a ",
"# p.mXbXx l.S.L.n.n.n.n.n.n.OX4XR.n.L.Z.Z.H.z.M.S.H.-.i a s s . = 2 2 4 4 4 4 i j n b j j 4 4 a 4 k n n n M n n 4 4 4 I K R n M ",
"# p.zXlXE.R.L.V.S.n.n.M.n.b.].[.H.z.b.S b.z.n.n.S.A.A.m B p p 7 w u u u u u u u i u u u i u u u u u u u s u u u i u 1 3 Y Y u u ",
"# s oXoX2X,XF.C.n.n.n.n.H.n.M.M.n.n.S 0 z Z.n.n.S.b.n.A.Z p u 7 6 @ @ 8 6 q r q 6 6 6 7 8 q q 6 9 6 7 q q 6 6 # # # o O Y ^ # # ",
"# f -X*X@X+XS.V.S.S.n.n.n.n.S.L.M.z.F.).J.z.n.n.H.b.A.A.-.u p 6 ' ;Xj.Y K : : 6 6 6 q 7 6 7 8 ^ } ~ 6 q q q 7 #.(.(.(.;.5 4 .Xg.",
"# f -X+X,X+XV.z.n.n.n.n.n.S.n.n.n.z.W.,X{.n.S.n.M.n.S.A.*.u u . ,.cXpXJ J : : 6 7 6 7 6 q r 7 [ 0.^ % : q # $ g.4X,X4X@X; k 4XaX",
"X g 2X+XR.R.S.S.M.V.S.n.n.n.z.M.C.l.S.R.F.n.n.n.n.S.S.D.-.f ` f.j.t.r.K L : 6 6 6 6 7 6 9 % # w.8X,.t t X %.s./.{.E.].F.z C T.Y.",
"@ f 2X Xn.c.N.N.n.V.V.V.n.c.z.c.l.m l.z.n.L.L.S.S.z.S.A.-.d a.kXwXD G o o 6 6 * . 7 8 . . # $ k.fXe.v i . /.5X].n.n.n.n.N.H.x x ",
"# y.2XOXL.H.S.b.S.S.*.X.C V z.L.x S C S.A.C b.n.n.H.A.A.>.) ) k.w.G G : : : 6 2 b b b u 1 u - #XfXj.' ( . /.2X].n.b.n.n.n.b.-.*.",
"# f 2X2XL.M.S.H.G.G.N i a a *.L.C z -.H.Z u Z n.H.H.S.Z &.o.o.J R > : X X 6 7 b.L.z.V.c z x.x.eXgXk.1.[ 9 _.4X].l.n.n.n.M.b.G.G.",
"# p _.'.C C *.*.*.-.n i a a Z C Z n V -.V g V b.C C Z m O.T W ! K : > p p w 7 G.F.F.F.X.X.A.l.!.eXr.1.^ X s.`.K.C b.b.C b.A Z Z ",
"% 6 # 6 e w w w u u w 1 f g u w u w u > u g p s u 1 e t e y + + , e g %X&X2 1 /.`.+X2X`.).oXXX#.0 ^ [ L X # @ 0 M d g g d d i i ",
"q 6 6 7 t r u u w p w t f f u u w t u w u g p p u w e t e , / + : t p g.g.u 1 g./.`.[./.<.T.).O.d ^ E L y q 9 w g d d d d g i f ",
"% q q 6 % # 7 q q q y % q q q q % % q r q r q # % % # q q y y + O % % q q X X # # q r % # 6 # % X / E ] h./ @ r q r r r r r r q ",
"q % q q # # q q e r r % r q r r r % % q q q % % # # # q % y y + O X X q q 6 X 6 % r r # # 6 # % % / F [ h./ @ q r r r r r r q q "
};
