/* XPM */
static char *_ed0e9d2f363462fd54234cfc105ff8719novXn4gHOBbJT8[] = {
/* columns rows colors chars-per-pixel */
"64 64 121 2 ",
"   c #2F251C",
".  c #30271E",
"X  c #32281F",
"o  c #2F2821",
"O  c #342B22",
"+  c #382F26",
"@  c #373027",
"#  c #393027",
"$  c #3D342A",
"%  c #3F3A31",
"&  c #40372E",
"*  c #41382F",
"=  c #453D34",
"-  c #483F36",
";  c #483E38",
":  c #474036",
">  c #494037",
",  c #47433A",
"<  c #4B433A",
"1  c #4F483E",
"2  c #50473E",
"3  c #51493F",
"4  c #544C42",
"5  c #584F46",
"6  c #575046",
"7  c #595047",
"8  c #5D554B",
"9  c #5F584E",
"0  c #5F5B51",
"q  c #60574E",
"w  c #60584F",
"e  c #635B52",
"r  c #685F56",
"t  c #676056",
"y  c #686157",
"u  c #6C635A",
"i  c #6C655B",
"p  c #6B665D",
"a  c #6B665E",
"s  c #6C655C",
"d  c #6E665C",
"f  c #6C645B",
"g  c #6C685E",
"h  c #6F685E",
"j  c #6F685E",
"k  c #71675F",
"l  c #70675E",
"z  c #70695F",
"x  c #70695F",
"c  c #706961",
"v  c #716A60",
"b  c #726B61",
"n  c #736B61",
"m  c #716B63",
"M  c #726B63",
"N  c #716C63",
"B  c #736C62",
"V  c #746D63",
"C  c #756E64",
"Z  c #766F65",
"A  c #746D63",
"S  c #786F66",
"D  c #737067",
"F  c #757067",
"G  c #757167",
"H  c #777066",
"J  c #767067",
"K  c #777167",
"L  c #777066",
"P  c #787167",
"I  c #787167",
"U  c #767269",
"Y  c #777269",
"T  c #77736A",
"R  c #797268",
"E  c #7A7369",
"W  c #79726A",
"Q  c #79746A",
"!  c #78746B",
"~  c #7A766D",
"^  c #7D766C",
"/  c #7F766D",
"(  c #7E776D",
")  c #7C746A",
"_  c #7F786E",
"`  c #7F786E",
"'  c #7E7970",
"]  c #80776E",
"[  c #80796F",
"{  c #807A70",
"}  c #817A70",
"|  c #827B71",
" . c #847D73",
".. c #887F76",
"X. c #878277",
"o. c #878076",
"O. c #888177",
"+. c #89847B",
"@. c #8B847A",
"#. c #8C857B",
"$. c #8B877D",
"%. c #8C877D",
"&. c #8C857B",
"*. c #8C887F",
"=. c #8F887E",
"-. c #90897F",
";. c #918A80",
":. c #928B81",
">. c #938C82",
",. c #948D83",
"<. c #938F86",
"1. c #958D84",
"2. c #958E84",
"3. c #938C82",
"4. c #959186",
"5. c #979086",
"6. c #979086",
"7. c #989187",
"8. c #989187",
"9. c #9C948B",
"0. c #A0978E",
/* pixels */
": % o @ ; , 0 0 e 0 e 0 4 , , < # X 6 ! ! G ! G U R c e w e q 4 = o o o O ; 2 s G *.4.~ G ! U 8 , % o O O = , , , , , , , < , , ",
"% $ o O ; < 6 8 7 8 8 7 , ; = = @ . 1 g g N N N N N f 0 q q 8 < = o O + $ 4 5 S ` %.*.! G G G e 6 : @ @ . = ; ; ; , > ; > , , , ",
"    o O = = = : ; , = ; ; = @ o . . $ > 4 0 e 0 e e 9 8 q q 5 & O o + * ; c S :.8.[ R L N A A z N 7 = $ . * - = ; - - - - - ; - ",
"o O . O = = = : ; ; ; = = = O o . . $ > 1 8 8 8 8 w e 8 q 5 3 + + O + 2 4 S / ;.-.[ L z N z z z z 7 , % . & * = ; - - = * = * * ",
"= $   O = = = = - - ; - O . o . & * = - > > - - 4 8 q 8 5 * * X + = 1 d S 1.6./ I L L L z r q q w 8 q - . . . + - - - * X X X O ",
"= %   O * * = = = * - ; O . . . & - - = = = = = 1 8 7 5 4 * & X + = 3 v S 1.1.W z N z z l w q q 8 q w > . . . & = = = & . . . . ",
"X X     O . O O X X O . . . . . & - - = - - = - = , < > - * * . + = 3 v A C J V A t w w w w q 7 q w w > . . . X . . . . X . . . ",
"X . . .       . . . . . . . . . & > = - - = - = ; = ; - - * * X O ; 3 k v c c M L w 8 9 8 q q q q 8 q , . . . . . . . . X . . . ",
"* * * & X . . . & * * * * * O . X @ * > = - = - - = = - = = * @ $ - > 2 3 w e e e q q q q q 7 q w 3 1 * . . . # = & % * * * * * ",
"- - - - X . . . * ; > > : : @ . . . $ = > = - > = - - - > : = @ $ ; - - > 8 w q q q q 8 q q q q w 3 : $ X . . $ > ; : : : : : : ",
"= * + X X X & & * * 8 e < : O . X . X @ + @ + # + + $ + @ + @ O O + $ * > 2 3 8 q q q 8 q 2 2 2 2 > < $ X # $ * = 4 t i ( R t t ",
"- * X X X X - > > > t A 1 = @ X X . X . . . . . X X X X X X X X X X O = = > < 7 q 7 q 7 q > * - > = : $ X $ - > = 7 L ` 8.-.L D ",
"7 2 X X . X w l [ X.L u > * : * X .   .     # * * - - * = = = : & X X X # = ; > > > > > > > - - > $ X X . * > 6 y ^ -.@.R R L z ",
"q 3 X X . + t z %.4.L w < * > > @   . . .   $ < > > < < < < : < = X X X O * = : - ; - - - > - * - $ X X . * > 9 z [ 8.@.N z L z ",
"q 5 * * X X 2 3 L [ u q 4 3 6 7 < * * % * : * * 4 y t t y y y f 8 * & X X O O = > - - * - - - $ + X X $ * 8 t ] -. .u u e w w t ",
"q 7 - * O X * > u L r q 7 5 q w 3 > < : < : : * 7 z z L A A L I y ; * X X . X = > - - - - - - + . . . $ < r z @.0. .8 q w q 8 w ",
"2 < * * X X * * 3 7 7 7 7 7 3 3 > * = = 3 w d L ^ O.X. .[ f f y w 3 3 * & . . + # & * : & & # O . + & * > w z x z d q q q q q q ",
"- * * & . X & * * * 3 q q 7 > * * * = = 6 h o.4.6.4.3.-.X.f y w w q q > * X       & * * & X   . . $ - > = w z t 7 q q w q q q q ",
"* & + & * * + + & $ > 2 2 2 * $ $ + $ $ > 8 y z L ^ E A z e w q q 3 3 < : .   . X + # & & # # # + & & & * 3 q 3 2 3 3 3 3 3 2 3 ",
"+ O X X 3 3 X . X + * - - - + + X . X + $ > < 3 7 e w w q q q w 8 3 < > : X   . .   X & * * & * * $ @ X + * - * * > 2 < < < < < ",
"X @ * < l u > = X X & $ & $ O X X   X O @ $ : 1 3 6 4 4 4 4 4 4 3 < > > = .   + # + & & * 3 3 < * * & # X $ & * = - > - < - < - ",
"  $ w f -.3.l w $   . . . . X . . X . X . X $ : = = = = - = > = = = = > = . . * : : = = : i ) 7 : > - & X . X & - - - - - - - - ",
"  @ 1 3 e r 4 3 * & X . . . # * $ & $ $ #   O # O # $ - - = = $ # + # # # & & - > 7 w w e o.X.i w w w 3 & X X X + # + + + + + + ",
". X = = * * - - - > $ . . . * > > ; : = $           + = - > * @ .       . - > : > u C n P -.-.o.L C L w * +     . . . . . . . X ",
". X # $ $ $ = - & $ X . # # = : 3 9 8 8 1 # # # O   O $ $ $ # X X & $ . X - > - - 3 e l C  .X.n r r r q 3 * + X . .   .         ",
". . . . . . * > + . . X * : : * w z z A w = = * # X .   . .   X # > * . X - - - = = > l k C C e q q q q q < = & . . X X X X X X ",
"+ @ @ + . . $ & X . + # 3 6 9 w f A A L y 7 3 < * @ O . . X X $ * 7 3 $ $ = - - - = : q r i d w 7 q q q 5 < = # . X + $ X & X & ",
"= = = * .   . . . . & > f L &.4.[ z A A A L y 8 3 * $ . X $ & * 3 C u > - > - - = - - = : 7 w q q q q 3 > - - #   + - * = = = * ",
"2 3 3 < # X X + X X $ > d L o.&.^ z z z z z t w 3 = $ X X # $ < q ] k 3 < > > * * - - - > 3 7 5 3 3 q 3 > = * # X & : < 3 3 3 3 ",
"k k k u < > - - O . $ > f A A A A L y w w 9 w w 5 > & . X + & t E 8.-.w 7 > * + X * - - > - - - : : > : : #   & = = : 3 k k ] k ",
"z z z u 2 > - - @ . $ > t d h d z z y w 9 7 8 9 3 > * X X # * d ^ -. .w 8 > - O X & = - = - - - = - - = * X   & : : 1 7 C C k k ",
"L z w w q q > - O . * = > < 8 w w e w 9 4 > > > > > > = : > 6 @.[ q q q q - = X X X X X X = > > > > > &       & < 3 n n k k S E ",
"d r q q 7 5 > = X . & - - - 3 5 5 5 5 4 2 - - - * * * > > < 3 E z 8 7 7 5 - * X X X X X X * * * * * * $ . $ * < 6 w L z C z z j ",
"q q q q > - - = X . & - = - - = - - - = - - - - *   @ > > 2 3 7 7 q 7 > > - * + X X . X X X X X O X   .   7 z L z C C L L z 9 9 ",
"q 3 7 5 > - - = # X & * = - = - = - - - = - - - &   X = * < < 3 5 7 5 > - * * + X X X O @ X @ X @ . .   . 6 t t t d C z z u 9 9 ",
"> > - - - - - = X X X X * - - - = - = - = - - - &   . . @ > = - = * * - * X . . . . X * > : : : : @   . . * > > : 8 C d w w w 9 ",
": > = - = * = = # X X X * = - - - - - - - - - = # . . . X - - - = = * = * .   X X O @ : : < 1 > : # X X X * > : * 6 l u 9 8 8 8 ",
"> < > = + X . . X X     X X * > - - - - < < & . . . . . X # * - > > = X X . X * : * % * * t d 3 * * * # . * > > > > < 3 w 8 > > ",
"- - > - X X X X X X . . X X * : - - - - 2 < &   X X . . X & & > > > = X X X X : < : : : < i A 3 * : : $ X * > > > = - < q 7 > = ",
"O + X + + # > < 3 3 < > # # X X + O + + X X X & X X & X + # # X O + O O @ $ * 1 6 y z ` ` L L f t w 7 2 * $ X $ = > - > < < * * ",
". . . X + $ 2 4 3 q 3 3 & O X . . . X . . . O + # # @ @ + $ + . . . X $ # = = 3 6 z ( %.%.E z k l e w 3 * &   & > * > - = = * * ",
". . . # q q ] | C l l u 3 2 * & & & + . + & & & 3 e w 8 5 * * & & & - q w t t L R R R z d y u e e q 3 < - X   X @ $ # # # + + X ",
"X . . # r l @.#.[ R C l w 3 1 = = = & X # * - - w R A f w 2 > - - - < f z L L [ o.( L w w w w w q 2 > - - X   X . . . X # X X X ",
"= & . X - > 2 3 y l r q q q 2 : = = = = - * q k [ 3.O.L z u r q 5 > > > 3 z I z z w 8 w w w w < * - - - * &   . . . . # - = - > ",
"> * X X * = = - r d q 7 q q < - = = > > - = q ]  .8.&.G A l u w 5 > > = < z L l d 8 6 8 9 8 8 > * * - * = + X X . . . # < > < < ",
"7 3 X X * - = - < 2 < < > < > - & X & > - = q l I ^ A w w e w 4 > O # = > 3 3 9 9 9 8 6 6 < < > - & + X X X X   X # * 3 y u y u ",
"q 3 . X * = - = - = = - = = = - X   $ > > = q k A A f 8 q q q 3 - X O - : > > 7 9 9 8 6 3 > = > = $ X X X   X X   # - 3 z z z z ",
"3 > . X + + = - = - - = - - - = +   X + & - 3 7 5 4 4 2 3 7 7 < * X X # @ - > 2 1 < < < < > * $ X X X + * * * X   # > 2 3 7 r y ",
"- & X . . X = - - - - - = - = - #       # = = > = > = = < 7 4 > & X .   X = > = > = = > = = = O X .   # > - - $ . @ > = = > 8 q ",
"= & X . . . + # + + # + # # # + X . .   X # * : - = > = > < > * + X X . X # $ = = = = # # # O X X + & 2 w w w < $ # # $ = - 2 2 ",
"- * X . .   . .                   X     . X $ > - = - = = = * @ X X . . . . X * = > = X         . $ - 8 R I L 8 * $ . O - - * = ",
"& # X X + & * = 7 q < * = = X   . X X # O X # $ $ $ & = = = * O X & $ $ $ . X # $ $ $ X X # $ $ $ 3 r t f f u q 3 *   X $ $ = - ",
"  . . X - > 7 q &.0.k q q q #   X X $ < & . . . .   + ; = * * X $ - - - = X   X X X . O X = > > > f &.L 8 q q q w < . X   X - - ",
". + < < - > 2 < q r 3 < < 2 + . # $ * > * $ & & + . X # # O O $ > r u R N = $ $ $ $ $ % = 8 e e t y l e 7 8 q q w , . . . X + + ",
"X & q q > > - = = = - - - - X X * > = = = * - - $   . . .   X * 5 L [ 6.%.3 > > = ; = > < f A I L u q 7 6 8 q q q > . . . . . . ",
"& * 3 2 & # # & + & + & # & X X $ : 3 9 t z y w 4 - - = * O # 4 t @.@. .` 7 3 > = $ $ 8 w ^ O.A y w q 8 7 5 3 3 3 - . X . . . . ",
": : : :         .       . . . . & > 8 A  .9.X.R f q q 7 3 # & r E 0.2.C k w 8 > = + O k I -.8.k w w q w 9 < * : > &   . X X X X ",
"& # & #     # # # + + & + # X . $ > 4 w y G u e 8 5 3 3 > + & 6 u &. .d u w 8 > = O O 8 e R ] y w q q 7 4 = # $ $ $ # # # # # # ",
"    .     X * : = = = > : : + . * > > : > ; > - - - - = * # # - 6 I k q q q q > = + X = < 5 q q q 8 q 3 = @       @ : : : : : : ",
"+ X X X O # 1 3 q q 3 3 : : O   # * * * * * * * * & & & $ + + * 2 t r 7 5 6 6 > = + X = > 5 5 5 5 5 5 2 = @   X X * 8 8 9 8 6 6 ",
": &   X = : r l -.-. .k < = X .         . . . . . . . . . . . . + = = - - - = - - + X = - - = - - - > - - +   # * w  .@.8.-.L D ",
"< = X X < 3 d C @.=.] l 3 < & + X   . X O # # # # + + # # # + X + * * = = = = * * + X = = = = = = * * * * # X * < w  .X.#.o.d d ",
"q 3 X # w y o.O.S l e q q q 3 3 $ X O # : 6 8 9 7 6 4 4 3 7 3 & +   . * & & & X . . X & & & & & & $ + X X * - 3 e l [ k 6 6 7 7 ",
"q 3 X # w y o.O.C d q q q q 7 q $ . O # = 8 9 e 9 7 6 7 7 7 5 * +   . & & * * X . X X $ & & & & & $ X + X * * 5 t k [ k 3 3 6 7 "
};
