/* XPM */
static char *_26deb96743846e9922da0d379b69d29LUo4qv8bQC2uEwAE[] = {
/* columns rows colors chars-per-pixel */
"64 64 181 2 ",
"   c #271E0F",
".  c #2D220F",
"X  c #2D2412",
"o  c #2E2419",
"O  c #322716",
"+  c #342916",
"@  c #302718",
"#  c #352B1C",
"$  c #392E1E",
"%  c #37301D",
"&  c #3C311D",
"*  c #2D2C20",
"=  c #352720",
"-  c #352C22",
";  c #392E23",
":  c #363326",
">  c #3C3324",
",  c #363429",
"<  c #3E3429",
"1  c #3E392D",
"2  c #3D3930",
"3  c #403626",
"4  c #433926",
"5  c #40362A",
"6  c #443A2C",
"7  c #493E2E",
"8  c #453730",
"9  c #453D31",
"0  c #493F32",
"q  c #47402A",
"w  c #4C422E",
"e  c #464033",
"r  c #4D4333",
"t  c #4C4639",
"y  c #4E4A3A",
"u  c #514635",
"i  c #534A36",
"p  c #584D36",
"a  c #514638",
"s  c #554C3B",
"d  c #594F3D",
"f  c #57503E",
"g  c #5B523D",
"h  c #60563F",
"j  c #60583F",
"k  c #565141",
"l  c #5C5442",
"z  c #5D5845",
"x  c #5E5A4A",
"c  c #615643",
"v  c #645B45",
"b  c #685E46",
"n  c #605748",
"m  c #655C49",
"M  c #695E4A",
"N  c #6B6246",
"B  c #67604C",
"V  c #6D634B",
"C  c #6F684E",
"Z  c #71674D",
"A  c #72684F",
"S  c #6D6552",
"D  c #6F6A57",
"F  c #6E6B59",
"G  c #716651",
"H  c #746A51",
"J  c #786E55",
"K  c #736C5A",
"L  c #736C59",
"P  c #746D58",
"I  c #746E59",
"U  c #766E59",
"Y  c #756F5B",
"T  c #776F5A",
"R  c #716F5C",
"E  c #766F5C",
"W  c #726C5A",
"Q  c #796E59",
"!  c #767052",
"~  c #7B7156",
"^  c #777059",
"/  c #77715B",
"(  c #75705D",
")  c #76715F",
"_  c #78715B",
"`  c #7D735A",
"'  c #797560",
"]  c #7E7662",
"[  c #7D7865",
"{  c #7D7B68",
"}  c #807656",
"|  c #80765D",
" . c #81775E",
".. c #80775C",
"X. c #83795F",
"o. c #82795D",
"O. c #837A5E",
"+. c #887F5F",
"@. c #837963",
"#. c #857B61",
"$. c #857D61",
"%. c #867D61",
"&. c #877D62",
"*. c #877F63",
"=. c #857C61",
"-. c #897F64",
";. c #897F64",
":. c #817D68",
">. c #827E68",
",. c #817D6A",
"<. c #8A7F69",
"1. c #8A7F68",
"2. c #898063",
"3. c #8A8064",
"4. c #898265",
"5. c #8B8166",
"6. c #8C8267",
"7. c #8C8365",
"8. c #8B8467",
"9. c #8D8467",
"0. c #8B8265",
"q. c #85836F",
"w. c #86826E",
"e. c #8D8368",
"r. c #8D836A",
"t. c #8E8469",
"y. c #8D8669",
"u. c #8E846B",
"i. c #8D8469",
"p. c #8F886B",
"a. c #8F886E",
"s. c #908767",
"d. c #928966",
"f. c #90866A",
"g. c #90866D",
"h. c #90866B",
"j. c #90896C",
"k. c #918B6D",
"l. c #92886F",
"z. c #938A6D",
"x. c #988F6D",
"c. c #9E946E",
"v. c #878570",
"b. c #858370",
"n. c #888574",
"m. c #8F8973",
"M. c #8B8878",
"N. c #938970",
"B. c #958B72",
"V. c #948A71",
"C. c #968C70",
"Z. c #968B76",
"A. c #958C71",
"S. c #998F73",
"D. c #918E7B",
"F. c #9C9274",
"G. c #97927A",
"H. c #9C947A",
"J. c #A09776",
"K. c #A19877",
"L. c #A1977A",
"P. c #A39A7B",
"I. c #A99F7F",
"U. c #9E9B84",
"Y. c #A59E82",
"T. c #A7A186",
"R. c #ABA285",
"E. c #A3A28B",
"W. c #AEA78A",
"Q. c #AFA88B",
"!. c #B2A785",
"~. c #B1A886",
"^. c #B3AA8B",
"/. c #B8AF8E",
"(. c #B8B08C",
"). c #AFAB91",
"_. c #B2A891",
"`. c #B9AF91",
"'. c #BBB598",
"]. c #C0B68F",
"[. c #C0B59E",
/* pixels */
"F F W W L L L L G E a 5 9 5 9 1 s n a 8 2 1 1 2 5 1 1 1 1 5 1 8 1 1 9 ) ) P W P K K K K K K K K K K K W E a 2 1 > s Q W W L P L ",
"F F W W L P P P L L k r 9 2 1 1 a k 0 2 8 9 9 9 e e e e 9 0 9 1 9 y l ^ P L L L H Q Q K W H K H H K Q G ` s 9 9 > f J P L L G L ",
"F G G G H A A Z Z Z G G 0 6 5 1 5 5 5 5 9 d s s s d s g s k d > s Z.1.A A Z Z A A +.-.H G H H A A A G G H v l t < s G A A H Z G ",
"F W Q H A Z J J H H G S a 0 6 < 5 5 8 5 r l l l l d k l g l s < s v.@.A A J H H A O.+.H Z G A H A A J G A n s a 9 l Q P A H H J ",
"W ' N.u.A A 0.9.J V H J G A r < 5 5 0 d v J H P H G A H Z P Z r d G G A J 9.u.J Z H H H H A G H G J G A J i ; V k.8.s.-.Z A s.0.",
"R ' N.e.A A 3.0.A Z D A C Z 0 < 6 5 u l v J J J H H H H A G G a k G V H J 3.0.J A A G H A H H A A A H A J i ; V p.3.u.O.Z J 0.0.",
"b.,.H J -.O.J A %.s.d > 6 6 1 < h Z Z A A Z | r.| H H Z A H A G v 4 p g.u.A A H A A A H H H H A A A A A A c d r 7 7 5 d s.-.J A ",
"b.,.Z J 0.3.A A 3.C.s # > > < < c H A J G Z #.N.X.H H Z A H A J b & u C.f.Z Z A H A Z H H H H G A G G A H c d r > < $ i x.0.Z Z ",
"U.G.2.` u r r 7 r i 6 3 i f 6 < 7 7 N 4.` A H J } -.;.;.@.G G h M } J J J -.-.J Z ..+.G Z G H d 7 r 0 r 0 9 6 6 1 4 < 6 w g F.c.",
"Q.I.d.2.> > > > > : > < d g 4 > 5 : B F.O.N Z C | l.l.S.e.G M i b z.+.V Z z.z.J G 1.s.J G } } 0 > > < > > > 5 > : < 5 5 $ w !.!.",
"z z p f v v v v v v c v V V f u 7 < r s D F.3.%.G s p p c #.o.} | s.3.+...J J s 0 G J p 0 a a 8 < 5 5 7 s a a d v a < 5 5 8 c c ",
"* : : 6 ! ! H J H J J H A ! g g r < < # v ^.N.u.m ; 3 # 7 s.s.z.f.0.0.f.s.A A 4 ; m G 6 5 5 5 3 5 5 5 u g f d v L g < 5 5 5 ; 3 ",
"S S V C H Z H Z A Z A A A A C C c d w > 6 0 r a 7 + g L.z.0.0.A J A J 0.0.A Z Z G G H V G 0 7 6 1 r s v Z Z V A G G M Z G Z 6 6 ",
"F F H H A H H A H H H G A J Z G v d w > > - < 7 3 O g ^.L.s.0.Z Z Z J f.0.A A A H G H H J u 7 8 < u d v Q A G G G H H H | G 5 5 ",
"D D H H A H H A H A H A H H G H Z V h a r 5 4 & g ` o.x.0.P J | ~ Z H J J A A G H A H G A M V 0 ; d S M Z A Z Z G G A A Z Z M M ",
"F D Z D H A H H A G A H A A H A G J c p u 9 > . h c.f.f.-.V Z #...A A A A H H H A H H A A H J u > n Q G N Z Z Z Z A J Z Z Z Q H ",
"D D Z H H H A H A J A G A H G G G J Z b g - M | X.3.%.} @.| | J J H A G A H H A H A H A G Z G u < r t n ` J J ` O.` A J ..` A H ",
"F L J J G A H A H A A A H A Z G A A H J v # | ^.C.#.@.J ` u.0.Z Z A H H H A H H H H A H A Z J u ; 5 - n m.` A X.z.O.Z ~ 3.O.A H ",
"F D g c H Z H A A H A H A G J } J A G J c - G F.0.O.O.%.O.` ` J J H A A G A H A A H A H H H H l s 0 5 a v J 2.O.#.` A H ` ~ H A ",
"F B 7 r C Z A H H G H A H A &.s.J A A J h + Z S.3.} -.x.0.C Z ..~ H J H A H A H G A G Z A A H M M 0 - < # J c.O.J J C Z Z A A H ",
"] D 6 r Z G H A A A H H H A ` ..J A J ..V u v Z ~ 3.+.O.O.` ` J J H H A H G A H H A H } } H H H Q m z a : J x.o.J J ..J H A H A ",
"G.] @ > Z Z A Z A A H A A G A A A Z ..x.-.Q a O j F.O.N J g.0.Z A H H H A H H A A H H f.z.J Z -.l.Z.P.P # G z.~ N ..S.0.G H Z A ",
"k x G D H H X.#.J Z A J H H G H A A H } Q @.g $ b z.O.A A ~ ~ ` J G A H H A A H A G H ` } H A ..z.Z l i ; ~ K.s.O.....~ Z J #.#.",
"* t G.m.G G g.z.J Z A A G A A Z A G Z b J J.v ; b z.o.Z A Z Z O.} Z A A A H H A H H A Z Z G A -.J.h @ < ; 3.(.F.l.O.N Z N A S.S.",
", y N.r.` ` X.X.J A A A G A } | J A } 1.J v i ; b K.s...` Z H J Q ..~ A A A A A A J A A G H A Z C i < 5 < c J X.f.-.} } | Q B V ",
", y F.N.3.3.A V Z Z A A A Z ;.l.} N 1./.~   3 $ G /.L.z.e.C Z Z J g.-.V Z A A H H A A A A A J 0 & < < < 5 % . v S.z.l.x.H.<.; ; ",
", r U Q s.x.` ~ ~ ` J A J Q ..O.} J 1.P.Q # 6 ; c 3.&.s.-.~ ~ A J O...Z Z A A J G H A A A J J s 1 6 r 6 < 4 > g J H J G U C 5 4 ",
"1 1 ; r ~.~.z.f.d.z.~ Z f.x.H b ..f.e.x.Z ; 6 9 4 $ p z.u.s.u.A Z Z Z Z Z A J A G Z A J J -.x.s : i c r < 5 5 5 3 ; ; 3 > > 1 < ",
", 1 4 r x.z.` Q ` ` J J ` _ Q G Q Q Q #.m ; 7 0 7 4 s | Q ` ` ~ J H H J H b b A G J H M b P | a > r d r 5 5 5 6 7 6 4 6 5 5 7 7 ",
", 1 1 1 < < < < < ; J d.8 - | H.l ; 5 < < 3 u z u 6 5 > 5 5 w F.z.` | N.f.3 > G Q &.1.6 < < < < 5 5 5 3 5 5 1 r n i 6 6 > 6 g g ",
"2 2 6 1 9 6 5 1 5 < S +.a 8 Q N.l 5 6 8 7 5 r g 0 5 5 6 6 6 r 9.+.G J -.@.4 3 M G | | 0 6 9 7 6 6 6 6 6 5 5 3 0 k u 5 6 4 6 z g ",
"k k f f d d < < 5 8 < 5 S G G H c i p p s s r < 5 > 0 n s 5 5 < 3 > 3 5 5 > > ; ; 5 6 Z G Z G h i d i s l 7 > 5 < 3 > 3 i d H A ",
"x z f g v c 0 6 6 5 0 i Z Q A H b h h c c z a 9 6 : 7 f i 5 1 < 5 7 5 < 1 d s u p a i A H A G b h h h g g w < > < 4 6 r h c A A ",
"R S p g ! J g g 4 > b J G G H A H H H H H J v l a < 4 < < 5 6 r i z d > 4 4.k.s.z.~ G H A G A J H H J N f q > 1 4 w g n J A H A ",
"R S f c J H c g a 7 b J G J H H A H A H G H v c s 6 7 6 7 q 7 7 r d s > 6 >.8.2.-.J Z J J A A H H C D N g u 5 5 > r z v H Z A H ",
"F F P H H A G P J A &.z.H A H A A H H A H A A J b d f f g f d 5 5 5 < > 4 r.u.J A A G s.f.J A A A H A A ! c g r & d J G H H A H ",
"F F D A H H C V H H #.e.J J A G H G A H H H A J b p c g g l s 5 5 5 5 q w 3.8.J A A H 1.s.J A G H A H H H v g i 3 s G Z H A H A ",
"F F H H H C 6 & @.N.J N 1.l.J A A H H A A H A A Z A Z A Z H C r 9 ; t T.P.A V C Z A H H A H A A H H Z H H A A A Z z > u H H A H ",
"F D H H H C 4 % ] B.H N f.N.J A A H A H A A A A A A H H A H C r 7 ; r Q.Y.A N Z A A H A A G A H A H A A A H A H L g ; r J H H H ",
"F F H S H H N B i 7 J 9.Q Q H H Z Z H ` J A A G H H A H H A Z v g < s A.p.O.} X.@.} J A J A H A H A H H Z ` O.~ ~ c ; u H H J J ",
"D D H L Z A J J 0 ; J x.P Z G A G Z J ~ J Z Z H H A Z A A A Z M z 3 i N.p.O.2.%.3.` ` H H Z H A A H A H Z | #...` v > w A H ` ` ",
"{ ] Z H X.| i w 6 > U z.#.| O...J Z A J H A Z Z J &.| G H H Z V z r s g v 2.2.~ J ! J H H | >.J A A H H H G } b i r > u %.` J J ",
"b.,.H H %.} q > 5 ; G f.O.+.O.+.~ A J J J H H Z } s...Z A A A M v r i w u X.%.J Z J ~ H H -.e.J A G G A A Z A p > q 5 f 9.%.A ! ",
"U.G.3.X.4 4 1 6 3 5 3 3 6 4 4 3 A s.F.R.F.0.0.0...H b 3 u G V 3 < < < < < & & } 9.3.3.H G Z Z G H H A Z J i 3 6 % B Q.H.0.u.3.3.",
"Y.U.f.| & & 4 5 5 5 $ # ; 3 3 # A l.F.~.L.9.f.f.O.J v $ 7 H M > > < > < < O O O.x.4.9.J Z V V Z A A A G H u 3 3 # V '.Y.u.f.9.e.",
"t k J G 4 4 d s s p v M 6 3 3 > 7 i i i a u u u w 6 i Z Z A Z v d 1 4 < < s i r w r r #.3.H V @.<...A c 7 6 3 5 6 0 p i 4 p 3.3.",
", 9 P V 4 5 s l k d V Q 6 ; 5 3 4 3 > > > & > > & # u Q G H Z S g > 4 > < l l < > & 4 u.B.Q H r.S.| J h ; 5 5 6 6 3 > & + 4 d.9.",
"1 9 m v v v V B V V G A s i 7 5 0 p w > u N v v v v b H G A A G N i u 1 < 7 7 < 4 1 5 s l r r s l a u 7 5 6 3 0 s a i r 3 6 g d ",
", 2 k l Q G J J J A H A h d 7 5 r z r # i ` H H J J J Z H A H J Z g p > > < < 5 5 5 5 > ; < < > 3 5 5 5 1 < > r l f f u , < ; ; ",
"k x B M G A G A G A H H b M 0 > 7 r s g v H G A A A H A H A A H N f f r r i r 5 < 5 5 t a 6 5 r 0 0 5 5 < r w g V v B v z h n n ",
"F F J L J A H A A H H A G G 0 5 > # g ~ H Z H A H A A H A H H H N f g l g z l 5 > < 5 l n 6 3 a n 0 5 5 ; r f v A ! ! ! J J J J ",
"F D D H A H A H H A A H G Q 0 5 s v V J J X.J A H H A H H H A H Z v v v v f d r 0 0 r r a 5 : t l 0 > 0 v v c V A A C A H H H H ",
"F D G G H H A A A H A H G H 0 $ Q L.O.M ` S.| Z Z H A H A H H A A A J J A d p g l l l < > > : s n 0 - m L.` Z H A H A A H A C Z ",
"{ [ Z L A H Z A A A H A ..&.M c l a J S.1.J Q A A H H H H Z A A A Z Z A A N N V S g d i i r r w 0 8 > r d J -.~ C J %.` V A #.%.",
"M.w.G H H A Z V A H H H e.g.J H a @ G /.x.G J A H H H H A Z N H Z Z Z A A J H H Q h p d f f g 6 ; > < > # A x.~ v J x.%.N A z.z.",
"n.w.H H H J ~ ..H A G H ` | ` #.s ; G L.1.A H A H Z A C H ` ` Z A } ~ Z A G H H A M v b N g g u a r a 0 : H s.e.e.%.} ~ Z A | ` ",
"D.w.V V A A u.z.H Z Z H A Z e.H.n - M l.| Z G A A A Z V J f.1.G ! f.-.V N H A H A H H H A j f g g g l a ; Q F.F.~.z.Z Z N V V Z ",
"S W <.1.` ` X.X.} } J A ` X.H G a ; M x...Z Q } J A A V A @.} M H O.` Z A A H A A A A A A N v v v v m p : n G >.H.u.Q | -.#.~ ~ ",
"* k '._.s.u.A V -.f.J V N.L.a - 5 < b s.} N +.S...Z Z Z Z V V n M J H H H H A Z Z Z A H A A J H H H J d > 5 # m z.g.u.S.`.!.f.f.",
", t Z.e.H J ~ ~ 9.x.} J Q Q a < 6 ; M c.-.J ..&.} Z H J H Z G c M ` Q H A A A ! ~ H A A J A A A H Z P l > 6 < g ` Q P ` e.1.+.-.",
", : # ; ; : 9.C.W.(.P.S.6 = 5 5 5 = Q ].Y.L.| b Z Z } z.1.V G d M <.@.Z Z V b 0.z.~ A H A A G J H H ~ c < < 4 < : : > > # 3 A A ",
"2 e 7 7 7 q X.3.F.L.u.%.0 > 6 5 6 = G I.<.<.} M Z Z J s.@.G G a n ] Q G Z Z Z -.s.~ A H H H J G A V Z d < 5 5 6 6 4 1 5 4 w J H ",
"D L H G J A s i 5 5 5 < r 0 a s 8 5 5 5 8 3 l | Q K ..@.| K W 5 5 5 e :.] Q J ....O.+.~ ~ ....M v a < 6 r r s a r 7 > w J H A H ",
"D D L H A A f i 7 4 5 5 0 0 a s 8 5 5 5 5 3 n | H H Q @.] Q G 5 5 < 0 @.@.Q J } ..O.O.` ` } | M v a < 0 r s s r w 7 > u J A H H "
};
